# xmcd
#
# Track frame offsets: 
#        150
#        24019
#        51327
#        68902
#        90639
#        106370
#        122853
#        145033
#        155036
#        172548
#        192076
#        214659
#        232671
#        255481
#        272621
#
# Disc length: 3879 seconds
#
# Revision: 0
# Processed by: cddbd v1.5.2PL0 Copyright (c) Steve Scherf et al.
# Submitted via: ExactAudioCopyFreeDBPlugin 1.0
#
DISCID=bd0f250f
DTITLE=Omar and the Howlers - Essential Collection [CD 1)
DYEAR=2011
DGENRE=Blues
TTITLE0=Magic Man 
TTITLE1=East Side Blues 
TTITLE2=Border Girl 
TTITLE3=Hard Times In the Land of Plenty 
TTITLE4=Bad Seed 
TTITLE5=Wall of Pride 
TTITLE6=Mississippi Hoo Doo Man 
TTITLE7=Big Chief Pontiac
TTITLE8=Tears Like Rain 
TTITLE9=Monkey Land 
TTITLE10=Snake Oil Doctor 
TTITLE11=Muddy Springs Road 
TTITLE12=Boogie Man 
TTITLE13=You Made Me Laugh 
TTITLE14=Jimmy Reed Highway 
EXTD=
EXTT0=
EXTT1=
EXTT2=
EXTT3=
EXTT4=
EXTT5=
EXTT6=
EXTT7=
EXTT8=
EXTT9=
EXTT10=
EXTT11=
EXTT12=
EXTT13=
EXTT14=
PLAYORDER=
